<svg width="1920" height="104" viewBox="0 0 1920 104" fill="none" xmlns="http://www.w3.org/2000/svg">
<path fill-rule="evenodd" clip-rule="evenodd" d="M92.5 57H0V0H1920V57H1759L1738.5 77.5L1674.5 13.5L1631 57H1559L1538.5 77.5H1498L1472 103.5L1446 77.5H1408L1387.5 57H1183.5L1161.75 35.25H1118.25L1096.5 57H1033L1012.5 77.5H967L941 103.5L894.5 57H755L711.5 13.5H670.5L647.5 36.5H610.5L590 57H492L471.5 77.5L430.5 36.5H387L366.5 57H303L256.5 103.5L230.5 77.5H200.5L159.5 36.5H113L92.5 57ZM1140 13.5L1121.5 32H1158.5L1140 13.5ZM1674.5 12L1684.5 2H1664.5L1674.5 12Z" fill="white"/>
</svg>
