<svg xmlns="http://www.w3.org/2000/svg" viewBox="0 0 471.9 516.6">
	<path d="M246.3,1.6c-4.2,5.5-9.7,10.5-12.4,16.7c-4.6,10.2-10.5,18.5-19.1,26.1c-15.1,13.4-23.1,31.9-30.5,50.4
		c-1.9,4.8-3.5,9.7-5.4,14.9c1.6,0.7,2.9,1.3,4.2,1.8c17.3,6.5,34.6,12.8,51.8,19.5c3.2,1.2,5.7,1.3,8.9,0
		c29.7-12.8,60-23.7,91.9-29.7c26.8-5.1,53.8-7.6,80.8-1.4c20.7,4.8,37.9,14.8,46.9,35.1c8,17.8,5.8,35.9-0.6,53.5
		c-8.8,24.5-23.7,45.3-40.7,64.7c-1,1.1-1.9,2.3-2.9,3.4c-0.2,0.2-0.3,0.6-0.4,0.8c7.9,10.3,16.2,20.2,23.6,30.8
		c11.2,16,20.4,33.2,24.3,52.6c3.6,17.9,1.7,34.7-9.3,49.9c-3.1-6.7-5.2-13.8-9.3-19.6c-5.8-8.2-9.9-16.2-11.6-26.5
		c-2.6-16.3-11.8-30.2-21.5-43.5c-5.5-7.5-11.5-14.6-17.6-22.3c-4.6,4.1-8.7,8.1-13,11.6c-11.2,9.1-22.7,18-33.9,27.2
		c-1.7,1.4-3.3,3.8-3.5,5.9c-3.7,28.2-8.4,56.3-16.7,83.6c-6.3,20.6-14.2,40.5-25.3,59c-13.8,22.8-31,41.7-58.7,47.3
		c-4.7,0-9.3,0-14,0c-10.9-2.5-21.2-6.5-30.2-13.5c-17.3-13.5-28.7-31.4-37.8-50.8c-5.6-11.8-10.1-24.1-14.8-35.4
		c-17.4,1.7-34.6,4.2-51.8,5c-20.1,0.9-39.9-1.8-58-11.9c-11.2-6.2-19.7-15-25.2-27.5c1.8,0.3,2.9,0.5,4,0.6
		c7.2,0.6,14.7,2.4,21.7,1.4c8.4-1.2,15.9-0.8,23.2,3.3c0.9,0.5,1.9,0.6,2.8,0.9c20.6,5.4,41.3,3.7,62,0.5c4.4-0.7,8.7-1.6,12.4-2.3
		c-3.1-19.8-6.3-38.8-8.9-57.9c-0.6-4.4-2.4-7-5.6-9.7c-17.3-14.3-35-28.3-51.3-43.7c-23.3-21.9-43.1-46.7-56.2-76.3
		c-6.5-14.7-10.3-30.1-7.9-46.2c3.6-24.7,19-39.6,41.8-47.5c23.3-8.1,47.2-7.2,71.1-4.4c8.7,1,17.3,2.7,26.1,4.2
		c1.6-4.6,3.1-8.8,4.7-13c5.9-16.1,13.1-31.6,22.6-46c13.5-20.5,30.2-36.7,55.4-41.7C237,1.6,241.6,1.6,246.3,1.6z M170.6,138.7
		c-16.9,79.7-16.9,158.3,0,237.7C248,351.3,316.1,312,376.4,257.6C316.1,203.2,248,163.9,170.6,138.7z M141.8,131.2
		c-10.2-1.5-19.7-3.3-29.3-4.1c-16.5-1.5-32.9-1.7-49,3.4c-18.9,6-27.3,19.2-22.1,38.3c3,11.1,7.6,22.1,13.4,32
		c15.2,26.2,36.4,47.4,59,67.3c4.4,3.9,9,7.6,14.5,12.1C126.8,229.5,130.4,180.5,141.8,131.2z M398.1,235.1
		c2.9-3.4,6.5-7.4,9.7-11.5c12.7-16.2,24.1-33.1,29.2-53.5c5-20.1-2.9-33.8-22.7-39.9c-15.6-4.8-31.6-4.8-47.5-3.3
		c-27.7,2.5-54.3,9.7-80.3,19.2c-3.4,1.2-6.9,2.5-9.9,3.6c21,13.3,42.3,25.8,62.4,39.9C359,203.8,378,219.6,398.1,235.1z
			M178.4,405.2c4.1,10.2,7.7,19.8,11.9,29.1c6.5,14.3,14.5,27.7,26.1,38.6c11.9,11.2,24.5,13.8,36.7,6.3c6-3.7,11.4-8.7,16-14.1
		c15.2-17.9,24.2-39.4,30.9-61.6c5.9-19.8,10.2-40,15.2-60.1c-0.5-0.2-1.1-0.4-1.6-0.7C271.2,368.9,226.8,390.4,178.4,405.2z"/>
	<path d="M287.4,80.6c-17.6,0-32.2-14.7-32-32.2c0.2-17.4,14.8-31.8,32-31.7c17.5,0,32.1,14.8,31.9,32.3
		C319.2,66.4,304.8,80.6,287.4,80.6z"/>
	<path d="M364.1,403.8c-0.1-17.6,14.5-32.3,32-32.1c17.4,0.2,31.7,14.5,31.8,31.9c0.1,17.5-14.5,32.1-32.1,32
		C378.3,435.6,364.1,421.4,364.1,403.8z"/>
	<path d="M34.5,288.4c17.5,0.1,31.7,14.3,31.8,31.8c0.1,17.5-14.8,32.3-32.1,32.1c-17.4-0.2-31.7-14.6-31.8-31.9
		C2.3,302.7,16.8,288.4,34.5,288.4z"/>
	<path d="M239.4,206.6c27.6,0.1,50.9,23.4,50.9,51c0,27.7-23.3,50.9-50.9,51c-28,0-51.1-23.2-51-51.3
		C188.4,229.5,211.5,206.5,239.4,206.6z"/>
</svg>