<svg xmlns="http://www.w3.org/2000/svg" viewBox="0 0 452.4 452">
	<path d="M449.4,239.7c-1.1,8.3-2.1,16.7-3.5,25c-4.5,27.1-14.1,52.4-28.3,75.9c-5.3,8.8-11.7,17-17.7,25.4c-0.7,1-3.1,1.8-4,1.3
		c-18.5-9.5-37.8-17.2-58.4-22.8c10.2-36.1,15.7-72.8,16.1-110.7c2.1,0,3.8,0,5.5,0c28.4,0,56.7,0,85.1,0c1.7,0,3.5-0.2,5.2-0.2
		C449.4,235.7,449.4,237.7,449.4,239.7z"/>
	<path d="M449.4,217.9c-31.8,0-63.6,0-95.8,0c-0.4-37.6-5.8-74.1-15.8-109.3c20.3-8.1,40.3-16,61-24.3c3.1,4.1,7.2,9,10.8,14.2
		c21.3,31,34.1,65.2,38.5,102.5c0.5,3.9,0.9,7.7,1.3,11.6C449.4,214.4,449.4,216.2,449.4,217.9z"/>
	<path d="M1.9,234.2c32.7,0,64.3,0,96.3,0c0.5,37.5,5.8,74,16.1,110.2c-5.7,1.8-11.4,3.1-16.7,5.3c-13.7,5.6-27.2,11.5-40.8,17.5
		c-2.1,0.9-3.4,1.2-5.1-0.9c-23.1-29.1-38.4-61.8-45.4-98.3C4.3,256.9,3.4,245.8,1.9,234.2z"/>
	<path d="M52.9,84.3c20.5,8.2,40.5,16.1,61,24.3c-9.9,34.9-15.3,71.4-15.7,108.9c-32,0-63.7,0-95.8,0
		C4.8,167.2,21.8,122.6,52.9,84.3z"/>
	<path d="M114.1,234.1c34.9,0,69,0,103.5,0c0,31.9,0,63.7,0,95.5c-14.5,1.1-29.2,1.8-43.7,3.6c-14.5,1.7-28.9,4.5-44,6.9
		C119.8,305.7,114.7,270.5,114.1,234.1z"/>
	<path d="M234,330.2c0-32.5,0-64.1,0-96c34.5,0,68.7,0,103.5,0c-0.5,36.1-5.6,71.4-15.8,106.4C292.7,334.2,263.7,330.5,234,330.2z"
		/>
	<path d="M129.8,111.8c14.9,2.4,29.3,5.3,43.8,7c14.5,1.7,29.2,2.3,44.1,3.5c0,31.6,0,63.2,0,95.2c-34.3,0-68.7,0-103.5,0
		C114.7,181.5,119.8,146.3,129.8,111.8z"/>
	<path d="M234.1,121.9c29.7-0.6,58.6-3.9,87.6-10.5c10.2,34.8,15.3,70.1,15.8,106.4c-34.6,0-68.9,0-103.5,0
		C234.1,185.9,234.1,154.1,234.1,121.9z"/>
	<path d="M217.7,346.4c0,34.1,0,68,0,102.3c-7.2-0.5-13.6-3-19.7-6.2c-15.9-8.3-27.7-21-37.7-35.5c-10.8-15.6-18.5-32.9-25.1-50.6
		C145.3,351.9,199.5,345.3,217.7,346.4z"/>
	<path d="M234,448.7c0-34.2,0-68,0-101.9c11.4-2.4,66.2,4.1,82.7,9.3c-12.4,31.9-26.9,62.2-56.3,82.4
		C252.5,443.9,243.9,447.6,234,448.7z"/>
	<path d="M135,96.1c11.7-30.3,25.3-58.7,51.2-79c9.2-7.2,19.4-12.1,31.4-13.9c0,34.3,0,68.3,0,102.6
		C189.8,105.5,162.5,102.1,135,96.1z"/>
	<path d="M316.4,95.9c-17.7,5.2-67.9,11-82.3,9.6c0-33.9,0-67.9,0-102.3c7.2,0.7,13.7,3.1,20,6.4c15.8,8.4,27.6,21.1,37.6,35.7
		c10.5,15.3,18,32.1,24.6,49.4C316.4,95.1,316.3,95.5,316.4,95.9z"/>
	<path d="M64.2,379.7c18.4-7.1,36.2-13.9,53.3-20.5c7.7,15.6,13.8,30.7,22.2,44.4c8.4,13.6,19,25.9,28,38
		C141.2,438.6,84.4,405.3,64.2,379.7z"/>
	<path d="M387.2,71.1c-17.6,9.3-35.6,16-53.3,20.8c-7.2-14.7-13.3-29.7-21.6-43.3c-8.3-13.6-18.9-25.9-28.2-38.5
		C323.3,20.7,357.8,40.9,387.2,71.1z"/>
	<path d="M168.6,10.3c-22.8,23.5-39.3,50.7-49.3,81.6c-14-2.7-44.8-14.6-54.5-21.1C93.9,41,128.3,20.8,168.6,10.3z"/>
	<path d="M282.8,441.8c23-23.4,39.5-50.6,49.7-82c19.1,4.8,36.9,11.9,54.7,21C357.9,411.1,323.2,431.2,282.8,441.8z"/>
</svg>