<svg id="Calque_1" data-name="Calque 1" xmlns="http://www.w3.org/2000/svg" viewBox="0 0 223 223"><title>Sans titre - 1</title><path d="M193.7,164l-.9,1.3-1,1.4-.8,1.2,18.6,13.5.9-1.2,1.3-1.9.8-1.2Z" transform="translate(-8.5 -3.5)"/><path d="M112.5,26.8,111,27h-1.8l-1.5.2L104.9,4.5l1.5-.2,2.2-.2,1.5-.2Z" transform="translate(-8.5 -3.5)"/><path d="M101.9,28.3l-1.5.4-1.7.4-1.5.3L91.7,7.1l1.5-.3,2.1-.6,1.5-.3Z" transform="translate(-8.5 -3.5)"/><path d="M91.6,31.1l-1.4.5-1.7.7-1.4.5L78.9,11.3l1.4-.5,2.1-.8,1.4-.5Z" transform="translate(-8.5 -3.5)"/><path d="M81.7,35.2l-1.3.6-1.6.9-1.4.7L66.7,17l1.3-.7,2-1,1.4-.7Z" transform="translate(-8.5 -3.5)"/><path d="M72.4,40.4l-1.3.8-1.5,1-1.2.9L55.3,24.2l1.2-.9,1.9-1.2,1.2-.9Z" transform="translate(-8.5 -3.5)"/><path d="M63.7,46.7l-1.1.9-1.4,1.2-1.1,1L44.8,32.6l1.2-1,1.7-1.5,1.1-.9Z" transform="translate(-8.5 -3.5)"/><path d="M55.9,54l-1,1.1-1.2,1.3-1,1.1L35.5,42.3l1-1.2L38,39.5l1-1.1Z" transform="translate(-8.5 -3.5)"/><path d="M49,62.1l-.9,1.3-1,1.4L46.2,66,27.3,53l.9-1.2a12.7,12.7,0,0,1,1.3-1.9l.8-1.2Z" transform="translate(-8.5 -3.5)"/><path d="M43.1,71.1l-.7,1.3a8,8,0,0,0-.8,1.6l-.7,1.3L20.5,64.6l.7-1.3a19.8,19.8,0,0,1,1.1-2L23,60Z" transform="translate(-8.5 -3.5)"/><path d="M38.4,80.7,37.8,82l-.6,1.7-.5,1.4L15.1,77l.6-1.4a18,18,0,0,1,.8-2.1l.6-1.4Z" transform="translate(-8.5 -3.5)"/><path d="M34.8,90.7l-.3,1.5L34,93.9l-.3,1.5L11.3,89.9l.4-1.4c.2-.8.3-1.5.5-2.2l.4-1.5Z" transform="translate(-8.5 -3.5)"/><path d="M32.6,101.2l-.3,1.4a11,11,0,0,1-.2,1.8v1.5L9.1,103.2l.2-1.5.3-2.2L9.8,98Z" transform="translate(-8.5 -3.5)"/><path d="M31.5,111.8v4.8H8.5v-5.2Z" transform="translate(-8.5 -3.5)"/><path d="M32.3,127.3,9.5,130l-.2-1.5a16.4,16.4,0,0,1-.2-2.2l-.2-1.5,22.9-2.3L32,124a11,11,0,0,0,.2,1.8Z" transform="translate(-8.5 -3.5)"/><path d="M34.4,137.7l-22.3,5.5-.4-1.4a14.2,14.2,0,0,0-.5-2.2l-.3-1.5,22.4-5,.4,1.4a11.6,11.6,0,0,0,.4,1.8Z" transform="translate(-8.5 -3.5)"/><path d="M37.8,147.9,16.3,156l-.5-1.4a18,18,0,0,1-.8-2.1l-.5-1.4,21.6-7.7.5,1.4c.2.5.4,1.1.7,1.7Z" transform="translate(-8.5 -3.5)"/><path d="M42.3,157.5,22,168.2l-.7-1.3-1-2-.7-1.3,20.6-10.3.6,1.3.9,1.6Z" transform="translate(-8.5 -3.5)"/><path d="M48,166.5,29.1,179.6l-.8-1.2a12.7,12.7,0,0,1-1.3-1.9l-.8-1.2,19.2-12.7.8,1.2a13,13,0,0,0,1,1.5Z" transform="translate(-8.5 -3.5)"/><path d="M54.8,174.8,37.6,190.1l-1-1.1-1.5-1.7-1-1.1,17.6-15,.9,1.2,1.2,1.3Z" transform="translate(-8.5 -3.5)"/><path d="M62.5,182.3,47.2,199.5l-1.1-1L44.5,197l-1.2-1,15.6-16.9,1.1,1,1.4,1.2Z" transform="translate(-8.5 -3.5)"/><path d="M71,188.7l-13.1,19-1.2-.9-1.8-1.3-1.2-.9L67.1,186l1.2.8,1.5,1.1Z" transform="translate(-8.5 -3.5)"/><path d="M80.2,194.1,69.6,214.5l-1.4-.7-2-1.1-1.3-.7L76,191.8l1.4.8,1.5.8Z" transform="translate(-8.5 -3.5)"/><path d="M90.1,198.3l-8.2,21.5-1.4-.5-2.1-.8-1.4-.6,8.6-21.3,1.4.5,1.7.7Z" transform="translate(-8.5 -3.5)"/><path d="M100.3,201.3l-5.5,22.4-1.4-.4-2.2-.6-1.4-.3,5.9-22.3,1.4.4,1.8.5Z" transform="translate(-8.5 -3.5)"/><path d="M110.9,203l-2.8,22.9-1.5-.2-2.2-.3-1.5-.2,3.2-22.8,1.5.2,1.8.3Z" transform="translate(-8.5 -3.5)"/><path d="M121.6,226.5h-5.3l.5-23h4.7Z" transform="translate(-8.5 -3.5)"/><path d="M135,225.5l-1.5.2-2.2.2-1.5.2-2.3-22.9,1.5-.2h1.7l1.5-.2Z" transform="translate(-8.5 -3.5)"/><path d="M148.2,222.9l-1.5.4-2.2.5-1.4.3L138,201.7l1.5-.4,1.7-.4,1.5-.3Z" transform="translate(-8.5 -3.5)"/><path d="M173.2,213l-1.3.7-2,1.1-1.4.6-10.3-20.5,1.4-.7,1.6-.8,1.3-.7Z" transform="translate(-8.5 -3.5)"/><path d="M161,218.7l-1.4.6-2.1.7-1.5.5-7.7-21.6,1.5-.5,1.6-.6,1.4-.6Z" transform="translate(-8.5 -3.5)"/><path d="M184.6,205.9l-1.2.9-1.9,1.2-1.2.8-12.7-19.1,1.2-.9,1.5-1,1.2-.8Z" transform="translate(-8.5 -3.5)"/><path d="M195.1,197.5l-1.1,1-1.7,1.4-1.2,1-14.9-17.5,1.1-1,1.4-1.2,1.1-.9Z" transform="translate(-8.5 -3.5)"/><path d="M204.5,187.8l-1,1.1-1.5,1.7-1.1,1.1L184,176.1l1.1-1.1,1.2-1.3,1-1.2Z" transform="translate(-8.5 -3.5)"/><path d="M219.5,165.5l-.7,1.3a19.8,19.8,0,0,0-1.1,2l-.7,1.3L196.8,159l.7-1.3.9-1.6.7-1.3Z" transform="translate(-8.5 -3.5)"/><path d="M224.8,153.1l-.5,1.4-.8,2.1-.6,1.4-21.3-8.6.5-1.4.7-1.6.5-1.4Z" transform="translate(-8.5 -3.5)"/><path d="M228.6,140.2l-.3,1.5-.6,2.1-.4,1.5-22.2-5.9.4-1.5.5-1.7.3-1.5Z" transform="translate(-8.5 -3.5)"/><path d="M230.9,126.9l-.2,1.5-.3,2.2-.2,1.5-22.8-3.2.2-1.4.3-1.8v-1.5Z" transform="translate(-8.5 -3.5)"/><path d="M231.5,115v3.7l-23-.4v-5h23Z" transform="translate(-8.5 -3.5)"/><path d="M231.1,105.1l-22.9,2.3-.2-1.5a11,11,0,0,0-.2-1.8v-1.5l22.8-2.7.2,1.4c.1.8.1,1.5.2,2.3Z" transform="translate(-8.5 -3.5)"/><path d="M229.1,91.8l-22.5,5-.3-1.4c-.1-.6-.3-1.2-.4-1.8l-.4-1.4,22.4-5.6.3,1.5.6,2.2Z" transform="translate(-8.5 -3.5)"/><path d="M225.5,78.8l-21.7,7.7-.5-1.4-.6-1.6-.5-1.5,21.5-8.2.5,1.5.8,2.1Z" transform="translate(-8.5 -3.5)"/><path d="M220.3,66.3,199.8,76.6l-.7-1.3c-.2-.5-.5-1-.8-1.6l-.7-1.3L218,61.7l.7,1.3,1,2Z" transform="translate(-8.5 -3.5)"/><path d="M213.8,54.6,194.6,67.3l-.8-1.2a13,13,0,0,1-1-1.5l-.9-1.2,18.9-13.1.9,1.2,1.2,1.9Z" transform="translate(-8.5 -3.5)"/><path d="M205.8,43.8,188.3,58.7l-1-1.2-1.1-1.3-1-1.1,17.1-15.3,1,1.1,1.5,1.7Z" transform="translate(-8.5 -3.5)"/><path d="M196.6,33.9,181,50.9l-1.1-1.1-1.3-1.1-1.1-1,15.2-17.3,1.1,1,1.7,1.5Z" transform="translate(-8.5 -3.5)"/><path d="M186.3,25.3,172.8,44l-1.2-.9-1.4-1-1.3-.9L182,22.3l1.2.8,1.8,1.3Z" transform="translate(-8.5 -3.5)"/><path d="M175,18,163.9,38.1l-1.3-.7-1.6-.9-1.3-.7,10.6-20.3,1.4.7,2,1Z" transform="translate(-8.5 -3.5)"/><path d="M162.9,12l-8.6,21.4-1.4-.6-1.6-.6-1.5-.6L158,10.1l1.4.6,2.1.8Z" transform="translate(-8.5 -3.5)"/><path d="M150.1,7.6l-5.9,22.2-1.4-.3L141,29l-1.4-.3L145,6.3l1.5.4,2.2.5Z" transform="translate(-8.5 -3.5)"/><path d="M137,4.8l-3.2,22.7-1.5-.2-1.8-.2-1.5-.2,2.8-22.8,1.5.2,2.2.3Z" transform="translate(-8.5 -3.5)"/><path d="M123.6,3.5l-.4,23h-4.9V3.5h5.3Z" transform="translate(-8.5 -3.5)"/></svg>