<svg xmlns="http://www.w3.org/2000/svg" viewBox="0 0 457.7 520">
	<path d="M226.8,4.6c1.7,0,3.3,0,5,0c1.5,1,3,2.1,4.5,3c69.8,40.3,139.6,80.6,209.4,120.8c3.6,2.1,5,4.3,5,8.5
		c-0.1,81.5-0.1,163,0,244.5c0,4.3-1.5,6.4-5.1,8.5c-70.7,40.7-141.4,81.5-212,122.4c-3.1,1.8-5.3,1.8-8.5,0
		c-70.7-41-141.5-81.9-212.4-122.6c-3.4-2-4.7-4.1-4.7-8.1c0.1-81.5,0.1-163,0-244.5c0-4.2,1.2-6.5,4.9-8.6
		c69.4-39.9,138.8-80,208.1-120.1C223.1,7.3,224.9,5.9,226.8,4.6z M180.8,322.9c9.3,4.6,17.9,8.9,26.8,13.4
		c23.6-47.3,47-94,70.5-141c-9.1-4.6-17.8-8.9-26.8-13.4C227.7,229,204.4,275.7,180.8,322.9z M396.3,259.4
		c-20.2-20.2-40.5-40.5-60-60.1c-6.5,6.4-13.4,13.2-21.2,20.9c12.9,12.9,26.1,26.1,39.9,39.9c-13.1,13-26.3,26.1-39,38.9
		c6.9,6.9,13.7,13.8,20.4,20.4C356.2,299.5,376.4,279.3,396.3,259.4z M104,259c13.4-13.3,26.7-26.6,39.5-39.4
		c-7.2-7.3-14.1-14.2-20.6-20.7c-20,20-40.2,40.3-60.2,60.3c19.9,19.9,40.2,40.2,60.2,60.1c6.6-6.6,13.4-13.4,20.8-20.7
		C130.7,285.6,117.5,272.4,104,259z"/>
</svg>