<?xml version="1.0" encoding="utf-8"?>
<!-- Generator: Adobe Illustrator 22.1.0, SVG Export Plug-In . SVG Version: 6.00 Build 0)  -->
<svg version="1.1" id="Calque_1" xmlns="http://www.w3.org/2000/svg" xmlns:xlink="http://www.w3.org/1999/xlink" x="0px" y="0px"
	 viewBox="0 0 383.7 382.8" style="enable-background:new 0 0 383.7 382.8;" xml:space="preserve">
<path d="M383.7,0H214C142.7,0,71.3,0,0,0c0,71.5,0,142.7,0,214v168.8h17.2l166.8-166.8c0.3,0.2,0.6,0.4,0.8,0.7
	c40.7,40.4,81.2,81,121.7,121.5c0.7,0.7,1.3,1.6,2.4,3.1c-32.5,0-64,0-95.6,0c0,14.4,0,28.5,0,42.5c57,0,113.6,0,170.3,0
	c0-57,0-113.7,0-170.4c-14.4,0-28.4,0-42.9,0c0,31.9,0,63.4,0,95.7c-1.3-1.2-2-1.8-2.7-2.5c-40.5-40.5-81.1-81-121.5-121.7
	c-0.2-0.2-0.5-0.5-0.7-0.8L383.7,16.3V0z"/>
</svg>
