<?xml version="1.0" encoding="utf-8"?>
<!-- Generator: Adobe Illustrator 22.1.0, SVG Export Plug-In . SVG Version: 6.00 Build 0)  -->
<svg version="1.1" id="Calque_1" xmlns="http://www.w3.org/2000/svg" xmlns:xlink="http://www.w3.org/1999/xlink" x="0px" y="0px"
	 viewBox="0 0 425.8 425.9" style="enable-background:new 0 0 425.8 425.9;" xml:space="preserve">
<g>
	<path d="M0,0c49.6,0,99,0,148.6,0c0,14,0,27.8,0,42.1c-25,0-49.9,0-74.7,0c33.3,33.2,66.3,66.2,99.2,99
		c-11.1,11-21.1,20.8-31.7,31.2c-32.4-32.5-65.4-65.6-99.2-99.5c0,25.9,0,50.7,0,75.8c-14.3,0-28.1,0-42.3,0C0,99.3,0,50,0,0z"/>
	<path d="M425.9,0.1c0,49.6,0,98.9,0,148.5c-13.9,0-27.8,0-42.3,0c0-25,0-49.8,0-75.3C350,107,317,140.1,284.3,172.9
		c-10.6-10.7-20.5-20.6-30.5-30.6c32.7-32.6,65.7-65.7,98.7-98.7c-0.2-0.4-0.3-0.8-0.5-1.2c-24.8,0-49.7,0-74.8,0
		c0-14.4,0-28.1,0-42.3C326.5,0.1,375.9,0.1,425.9,0.1z"/>
	<path d="M-0.1,277.3c14.2,0,27.9,0,42.1,0c0,25,0,49.8,0,74.6c33.3-33.3,66.3-66.4,99.2-99.2c11,11,20.8,20.9,30.9,31
		c-32.8,32.8-65.8,65.8-99.8,99.9c26.3,0,51.1,0,76.3,0c0,14.5,0,28.3,0,42.5c-49.5,0-98.9,0-148.6,0C-0.1,376.4-0.1,327-0.1,277.3z
		"/>
	<path d="M252.7,284.9c11.2-11.2,21.1-21.1,31.8-31.8c32.6,32.7,65.6,65.8,99,99.3c0-25.1,0-49.8,0-74.9c14.3,0,28.2,0,42.4,0
		c0,49.5,0,98.9,0,148.6c-49.6,0-99,0-148.7,0c0-13.9,0-27.7,0-42.1c24.9,0,49.7,0,74.8,0C318.5,350.5,285.4,317.5,252.7,284.9z"/>
</g>
</svg>
