<?xml version="1.0" encoding="utf-8"?>
<!-- Generator: Adobe Illustrator 22.1.0, SVG Export Plug-In . SVG Version: 6.00 Build 0)  -->
<svg version="1.1" id="Calque_1" xmlns="http://www.w3.org/2000/svg" xmlns:xlink="http://www.w3.org/1999/xlink" x="0px" y="0px"
	 viewBox="0 0 383.7 382.8" style="enable-background:new 0 0 383.7 382.8;" xml:space="preserve">
<g>
	<path d="M214,0c0,59.3,0,118.6,0.1,178c0,2.4,0.9,5.4,2.5,7c40.4,40.7,81,81.2,121.5,121.7c0.7,0.7,1.4,1.3,2.7,2.5
		c0-32.3,0-63.8,0-95.7c14.5,0,28.5,0,42.9,0c0,56.7,0,113.4,0,170.4c-56.8,0-113.4,0-170.3,0c0-14,0-28.1,0-42.5
		c31.6,0,63.2,0,95.6,0c-1.1-1.5-1.7-2.4-2.4-3.1c-40.5-40.5-81-81.1-121.7-121.5c-1.6-1.6-4.6-2.5-7-2.5C118.6,214,59.3,214,0,214
		C0,142.7,0,71.5,0,0C71.3,0,142.7,0,214,0z"/>
</g>
</svg>
