<svg width="1348" height="991" viewBox="0 0 1348 991" fill="none" xmlns="http://www.w3.org/2000/svg">
<path d="M59 1L295 237H382L440.5 178.5" stroke="black" stroke-width="2"/>
<path d="M1286.5 1L1050.5 237H963.5L905 178.5" stroke="black" stroke-width="2"/>
<path d="M59 990L295 754H382L440.5 812.5" stroke="black" stroke-width="2"/>
<path d="M1286.5 990L1050.5 754H963.5L905 812.5" stroke="black" stroke-width="2"/>
<g filter="url(#filter0_d)">
<rect x="1013" y="420" width="20" height="150" fill="black"/>
</g>
<g filter="url(#filter1_d)">
<rect x="1038" y="420" width="10" height="150" fill="black"/>
</g>
<line x1="1233.94" y1="433.081" x2="1248.08" y2="418.939" stroke="black" stroke-width="3"/>
<line x1="1243.94" y1="433.081" x2="1258.08" y2="418.939" stroke="black" stroke-width="3"/>
<line x1="1253.94" y1="433.081" x2="1268.08" y2="418.939" stroke="black" stroke-width="3"/>
<line x1="1263.94" y1="433.081" x2="1278.08" y2="418.939" stroke="black" stroke-width="3"/>
<line x1="1273.94" y1="433.081" x2="1288.08" y2="418.939" stroke="black" stroke-width="3"/>
<line x1="1283.94" y1="433.081" x2="1298.08" y2="418.939" stroke="black" stroke-width="3"/>
<line x1="1293.94" y1="433.081" x2="1308.08" y2="418.939" stroke="black" stroke-width="3"/>
<line x1="1303.94" y1="433.081" x2="1318.08" y2="418.939" stroke="black" stroke-width="3"/>
<line x1="1236.06" y1="550.94" x2="1250.2" y2="565.082" stroke="black" stroke-width="3"/>
<line x1="1246.06" y1="550.94" x2="1260.2" y2="565.082" stroke="black" stroke-width="3"/>
<line x1="1256.06" y1="550.94" x2="1270.2" y2="565.082" stroke="black" stroke-width="3"/>
<line x1="1266.06" y1="550.94" x2="1280.2" y2="565.082" stroke="black" stroke-width="3"/>
<line x1="1276.06" y1="550.94" x2="1290.2" y2="565.082" stroke="black" stroke-width="3"/>
<line x1="1286.06" y1="550.94" x2="1300.2" y2="565.082" stroke="black" stroke-width="3"/>
<line x1="1296.06" y1="550.94" x2="1310.2" y2="565.082" stroke="black" stroke-width="3"/>
<line x1="1306.06" y1="550.94" x2="1320.2" y2="565.082" stroke="black" stroke-width="3"/>
<path d="M1348 492.5H1098" stroke="black"/>
<line x1="30.0607" y1="418.939" x2="44.2028" y2="433.082" stroke="black" stroke-width="3"/>
<line x1="40.0633" y1="418.939" x2="54.2055" y2="433.081" stroke="black" stroke-width="3"/>
<line x1="50.0633" y1="418.939" x2="64.2055" y2="433.081" stroke="black" stroke-width="3"/>
<line x1="60.0633" y1="418.939" x2="74.2055" y2="433.081" stroke="black" stroke-width="3"/>
<line x1="70.0636" y1="418.939" x2="84.2057" y2="433.081" stroke="black" stroke-width="3"/>
<line x1="80.0636" y1="418.939" x2="94.2057" y2="433.081" stroke="black" stroke-width="3"/>
<line x1="90.0636" y1="418.939" x2="104.206" y2="433.081" stroke="black" stroke-width="3"/>
<line x1="100.06" y1="418.939" x2="114.202" y2="433.081" stroke="black" stroke-width="3"/>
<line x1="27.9393" y1="565.082" x2="42.0815" y2="550.939" stroke="black" stroke-width="3"/>
<line x1="37.942" y1="565.081" x2="52.0842" y2="550.939" stroke="black" stroke-width="3"/>
<line x1="47.942" y1="565.081" x2="62.0842" y2="550.939" stroke="black" stroke-width="3"/>
<line x1="57.942" y1="565.081" x2="72.0842" y2="550.939" stroke="black" stroke-width="3"/>
<line x1="67.9423" y1="565.081" x2="82.0844" y2="550.939" stroke="black" stroke-width="3"/>
<line x1="77.9423" y1="565.081" x2="92.0844" y2="550.939" stroke="black" stroke-width="3"/>
<line x1="87.9423" y1="565.081" x2="102.084" y2="550.939" stroke="black" stroke-width="3"/>
<line x1="97.9389" y1="565.081" x2="112.081" y2="550.939" stroke="black" stroke-width="3"/>
<g filter="url(#filter2_d)">
<rect x="315" y="420" width="20" height="150" fill="black"/>
</g>
<g filter="url(#filter3_d)">
<rect x="300" y="420" width="10" height="150" fill="black"/>
</g>
<path d="M0 492.5H250" stroke="black"/>
<defs>
<filter id="filter0_d" x="903" y="310" width="240" height="370" filterUnits="userSpaceOnUse" color-interpolation-filters="sRGB">
<feFlood flood-opacity="0" result="BackgroundImageFix"/>
<feColorMatrix in="SourceAlpha" type="matrix" values="0 0 0 0 0 0 0 0 0 0 0 0 0 0 0 0 0 0 127 0" result="hardAlpha"/>
<feMorphology radius="10" operator="dilate" in="SourceAlpha" result="effect1_dropShadow"/>
<feOffset/>
<feGaussianBlur stdDeviation="50"/>
<feComposite in2="hardAlpha" operator="out"/>
<feColorMatrix type="matrix" values="0 0 0 0 1 0 0 0 0 1 0 0 0 0 1 0 0 0 0.25 0"/>
<feBlend mode="normal" in2="BackgroundImageFix" result="effect1_dropShadow"/>
<feBlend mode="normal" in="SourceGraphic" in2="effect1_dropShadow" result="shape"/>
</filter>
<filter id="filter1_d" x="928" y="310" width="230" height="370" filterUnits="userSpaceOnUse" color-interpolation-filters="sRGB">
<feFlood flood-opacity="0" result="BackgroundImageFix"/>
<feColorMatrix in="SourceAlpha" type="matrix" values="0 0 0 0 0 0 0 0 0 0 0 0 0 0 0 0 0 0 127 0" result="hardAlpha"/>
<feMorphology radius="10" operator="dilate" in="SourceAlpha" result="effect1_dropShadow"/>
<feOffset/>
<feGaussianBlur stdDeviation="50"/>
<feComposite in2="hardAlpha" operator="out"/>
<feColorMatrix type="matrix" values="0 0 0 0 1 0 0 0 0 1 0 0 0 0 1 0 0 0 0.25 0"/>
<feBlend mode="normal" in2="BackgroundImageFix" result="effect1_dropShadow"/>
<feBlend mode="normal" in="SourceGraphic" in2="effect1_dropShadow" result="shape"/>
</filter>
<filter id="filter2_d" x="205" y="310" width="240" height="370" filterUnits="userSpaceOnUse" color-interpolation-filters="sRGB">
<feFlood flood-opacity="0" result="BackgroundImageFix"/>
<feColorMatrix in="SourceAlpha" type="matrix" values="0 0 0 0 0 0 0 0 0 0 0 0 0 0 0 0 0 0 127 0" result="hardAlpha"/>
<feMorphology radius="10" operator="dilate" in="SourceAlpha" result="effect1_dropShadow"/>
<feOffset/>
<feGaussianBlur stdDeviation="50"/>
<feComposite in2="hardAlpha" operator="out"/>
<feColorMatrix type="matrix" values="0 0 0 0 1 0 0 0 0 1 0 0 0 0 1 0 0 0 0.25 0"/>
<feBlend mode="normal" in2="BackgroundImageFix" result="effect1_dropShadow"/>
<feBlend mode="normal" in="SourceGraphic" in2="effect1_dropShadow" result="shape"/>
</filter>
<filter id="filter3_d" x="190" y="310" width="230" height="370" filterUnits="userSpaceOnUse" color-interpolation-filters="sRGB">
<feFlood flood-opacity="0" result="BackgroundImageFix"/>
<feColorMatrix in="SourceAlpha" type="matrix" values="0 0 0 0 0 0 0 0 0 0 0 0 0 0 0 0 0 0 127 0" result="hardAlpha"/>
<feMorphology radius="10" operator="dilate" in="SourceAlpha" result="effect1_dropShadow"/>
<feOffset/>
<feGaussianBlur stdDeviation="50"/>
<feComposite in2="hardAlpha" operator="out"/>
<feColorMatrix type="matrix" values="0 0 0 0 1 0 0 0 0 1 0 0 0 0 1 0 0 0 0.25 0"/>
<feBlend mode="normal" in2="BackgroundImageFix" result="effect1_dropShadow"/>
<feBlend mode="normal" in="SourceGraphic" in2="effect1_dropShadow" result="shape"/>
</filter>
</defs>
</svg>
